<mxfile host="app.diagrams.net" modified="2024-01-05T21:23:05.334Z" agent="Mozilla/5.0 (Windows NT 10.0; Win64; x64) AppleWebKit/537.36 (KHTML, like Gecko) Chrome/120.0.0.0 Safari/537.36" etag="jp-3wlgz8Mp-69KtmtQD" version="22.1.17" type="device">
  <diagram name="Page-1" id="7GN_5OybXIh4bGt08Ciw">
    <mxGraphModel dx="1434" dy="738" grid="1" gridSize="10" guides="1" tooltips="1" connect="1" arrows="1" fold="1" page="1" pageScale="1" pageWidth="827" pageHeight="1169" math="0" shadow="0">
      <root>
        <mxCell id="0" />
        <mxCell id="1" parent="0" />
        <mxCell id="3bo532ZrrMb0qC5lylQY-1" value="DocumentFactory" style="swimlane;fontStyle=1;align=center;verticalAlign=top;childLayout=stackLayout;horizontal=1;startSize=26;horizontalStack=0;resizeParent=1;resizeParentMax=0;resizeLast=0;collapsible=1;marginBottom=0;whiteSpace=wrap;html=1;" vertex="1" parent="1">
          <mxGeometry x="610" y="530" width="160" height="60" as="geometry" />
        </mxCell>
        <mxCell id="3bo532ZrrMb0qC5lylQY-3" value="" style="line;strokeWidth=1;fillColor=none;align=left;verticalAlign=middle;spacingTop=-1;spacingLeft=3;spacingRight=3;rotatable=0;labelPosition=right;points=[];portConstraint=eastwest;strokeColor=inherit;" vertex="1" parent="3bo532ZrrMb0qC5lylQY-1">
          <mxGeometry y="26" width="160" height="8" as="geometry" />
        </mxCell>
        <mxCell id="3bo532ZrrMb0qC5lylQY-4" value="&lt;u&gt;- factory(type, Document)&lt;/u&gt;" style="text;strokeColor=none;fillColor=none;align=left;verticalAlign=top;spacingLeft=4;spacingRight=4;overflow=hidden;rotatable=0;points=[[0,0.5],[1,0.5]];portConstraint=eastwest;whiteSpace=wrap;html=1;" vertex="1" parent="3bo532ZrrMb0qC5lylQY-1">
          <mxGeometry y="34" width="160" height="26" as="geometry" />
        </mxCell>
        <mxCell id="3bo532ZrrMb0qC5lylQY-5" value="Document" style="swimlane;fontStyle=1;align=center;verticalAlign=top;childLayout=stackLayout;horizontal=1;startSize=26;horizontalStack=0;resizeParent=1;resizeParentMax=0;resizeLast=0;collapsible=1;marginBottom=0;whiteSpace=wrap;html=1;" vertex="1" parent="1">
          <mxGeometry x="330" y="500" width="230" height="270" as="geometry" />
        </mxCell>
        <mxCell id="3bo532ZrrMb0qC5lylQY-6" value="+&amp;nbsp; titre : String&lt;br&gt;+ auteur : String&lt;br&gt;+ date : Date&lt;br&gt;+ url : String&lt;br&gt;+ texte : String&lt;br&gt;- type : String" style="text;strokeColor=none;fillColor=none;align=left;verticalAlign=top;spacingLeft=4;spacingRight=4;overflow=hidden;rotatable=0;points=[[0,0.5],[1,0.5]];portConstraint=eastwest;whiteSpace=wrap;html=1;" vertex="1" parent="3bo532ZrrMb0qC5lylQY-5">
          <mxGeometry y="26" width="230" height="114" as="geometry" />
        </mxCell>
        <mxCell id="3bo532ZrrMb0qC5lylQY-7" value="" style="line;strokeWidth=1;fillColor=none;align=left;verticalAlign=middle;spacingTop=-1;spacingLeft=3;spacingRight=3;rotatable=0;labelPosition=right;points=[];portConstraint=eastwest;strokeColor=inherit;" vertex="1" parent="3bo532ZrrMb0qC5lylQY-5">
          <mxGeometry y="140" width="230" height="8" as="geometry" />
        </mxCell>
        <mxCell id="3bo532ZrrMb0qC5lylQY-8" value="+ __init__(titre : String, auteur : String, date : Date, url : String, texte : String, type : String&amp;nbsp; : Document&lt;br&gt;+ affiche ()&amp;nbsp; :String&lt;br&gt;+ __str__() : String&lt;br&gt;getType () : Pass" style="text;strokeColor=none;fillColor=none;align=left;verticalAlign=top;spacingLeft=4;spacingRight=4;overflow=hidden;rotatable=0;points=[[0,0.5],[1,0.5]];portConstraint=eastwest;whiteSpace=wrap;html=1;" vertex="1" parent="3bo532ZrrMb0qC5lylQY-5">
          <mxGeometry y="148" width="230" height="122" as="geometry" />
        </mxCell>
        <mxCell id="3bo532ZrrMb0qC5lylQY-9" value="RedditDocument" style="swimlane;fontStyle=1;align=center;verticalAlign=top;childLayout=stackLayout;horizontal=1;startSize=26;horizontalStack=0;resizeParent=1;resizeParentMax=0;resizeLast=0;collapsible=1;marginBottom=0;whiteSpace=wrap;html=1;" vertex="1" parent="1">
          <mxGeometry x="20" y="750" width="280" height="190" as="geometry" />
        </mxCell>
        <mxCell id="3bo532ZrrMb0qC5lylQY-10" value="+ nbCommentaires : Integer&lt;br&gt;" style="text;strokeColor=none;fillColor=none;align=left;verticalAlign=top;spacingLeft=4;spacingRight=4;overflow=hidden;rotatable=0;points=[[0,0.5],[1,0.5]];portConstraint=eastwest;whiteSpace=wrap;html=1;" vertex="1" parent="3bo532ZrrMb0qC5lylQY-9">
          <mxGeometry y="26" width="280" height="26" as="geometry" />
        </mxCell>
        <mxCell id="3bo532ZrrMb0qC5lylQY-11" value="" style="line;strokeWidth=1;fillColor=none;align=left;verticalAlign=middle;spacingTop=-1;spacingLeft=3;spacingRight=3;rotatable=0;labelPosition=right;points=[];portConstraint=eastwest;strokeColor=inherit;" vertex="1" parent="3bo532ZrrMb0qC5lylQY-9">
          <mxGeometry y="52" width="280" height="8" as="geometry" />
        </mxCell>
        <mxCell id="3bo532ZrrMb0qC5lylQY-12" value="+ __init__(titre : String, auteur : String, date : Date, url : String, texte : String, type : String, nbCommentaires : Integer) :RedditDocument&lt;br&gt;+ getNbCommentaires : Integer&lt;br&gt;+ setNbCommentaires(nbCommentaires : Int) : void&lt;br&gt;+ __str__ : String&lt;br&gt;+ getType : String" style="text;strokeColor=none;fillColor=none;align=left;verticalAlign=top;spacingLeft=4;spacingRight=4;overflow=hidden;rotatable=0;points=[[0,0.5],[1,0.5]];portConstraint=eastwest;whiteSpace=wrap;html=1;" vertex="1" parent="3bo532ZrrMb0qC5lylQY-9">
          <mxGeometry y="60" width="280" height="130" as="geometry" />
        </mxCell>
        <mxCell id="3bo532ZrrMb0qC5lylQY-13" value="ArvixDocument" style="swimlane;fontStyle=1;align=center;verticalAlign=top;childLayout=stackLayout;horizontal=1;startSize=26;horizontalStack=0;resizeParent=1;resizeParentMax=0;resizeLast=0;collapsible=1;marginBottom=0;whiteSpace=wrap;html=1;" vertex="1" parent="1">
          <mxGeometry x="450" y="780" width="260" height="160" as="geometry" />
        </mxCell>
        <mxCell id="3bo532ZrrMb0qC5lylQY-14" value="+ coAuteurs list[]" style="text;strokeColor=none;fillColor=none;align=left;verticalAlign=top;spacingLeft=4;spacingRight=4;overflow=hidden;rotatable=0;points=[[0,0.5],[1,0.5]];portConstraint=eastwest;whiteSpace=wrap;html=1;" vertex="1" parent="3bo532ZrrMb0qC5lylQY-13">
          <mxGeometry y="26" width="260" height="26" as="geometry" />
        </mxCell>
        <mxCell id="3bo532ZrrMb0qC5lylQY-15" value="" style="line;strokeWidth=1;fillColor=none;align=left;verticalAlign=middle;spacingTop=-1;spacingLeft=3;spacingRight=3;rotatable=0;labelPosition=right;points=[];portConstraint=eastwest;strokeColor=inherit;" vertex="1" parent="3bo532ZrrMb0qC5lylQY-13">
          <mxGeometry y="52" width="260" height="8" as="geometry" />
        </mxCell>
        <mxCell id="3bo532ZrrMb0qC5lylQY-16" value="+ __init__(titre : String, auteur : String, date : Date, url : String, texte : String, type : String&amp;nbsp; coAuteurs : list[]) : ArvixDocument&lt;br&gt;+ getCoAuteurs : list[]&lt;br&gt;+ __str__ : String&lt;br&gt;+ getType : String" style="text;strokeColor=none;fillColor=none;align=left;verticalAlign=top;spacingLeft=4;spacingRight=4;overflow=hidden;rotatable=0;points=[[0,0.5],[1,0.5]];portConstraint=eastwest;whiteSpace=wrap;html=1;" vertex="1" parent="3bo532ZrrMb0qC5lylQY-13">
          <mxGeometry y="60" width="260" height="100" as="geometry" />
        </mxCell>
        <mxCell id="3bo532ZrrMb0qC5lylQY-17" value="Author" style="swimlane;fontStyle=1;align=center;verticalAlign=top;childLayout=stackLayout;horizontal=1;startSize=26;horizontalStack=0;resizeParent=1;resizeParentMax=0;resizeLast=0;collapsible=1;marginBottom=0;whiteSpace=wrap;html=1;" vertex="1" parent="1">
          <mxGeometry x="20" y="50" width="190" height="158" as="geometry" />
        </mxCell>
        <mxCell id="3bo532ZrrMb0qC5lylQY-18" value="+ name : String&lt;br&gt;+ ndoc = integer&lt;br&gt;+ production : list[]" style="text;strokeColor=none;fillColor=none;align=left;verticalAlign=top;spacingLeft=4;spacingRight=4;overflow=hidden;rotatable=0;points=[[0,0.5],[1,0.5]];portConstraint=eastwest;whiteSpace=wrap;html=1;" vertex="1" parent="3bo532ZrrMb0qC5lylQY-17">
          <mxGeometry y="26" width="190" height="74" as="geometry" />
        </mxCell>
        <mxCell id="3bo532ZrrMb0qC5lylQY-19" value="" style="line;strokeWidth=1;fillColor=none;align=left;verticalAlign=middle;spacingTop=-1;spacingLeft=3;spacingRight=3;rotatable=0;labelPosition=right;points=[];portConstraint=eastwest;strokeColor=inherit;" vertex="1" parent="3bo532ZrrMb0qC5lylQY-17">
          <mxGeometry y="100" width="190" height="8" as="geometry" />
        </mxCell>
        <mxCell id="3bo532ZrrMb0qC5lylQY-20" value="+ __str__ : String&lt;br&gt;+ __init__ (name : String) : Author&lt;br&gt;+ add(production : String) : void" style="text;strokeColor=none;fillColor=none;align=left;verticalAlign=top;spacingLeft=4;spacingRight=4;overflow=hidden;rotatable=0;points=[[0,0.5],[1,0.5]];portConstraint=eastwest;whiteSpace=wrap;html=1;" vertex="1" parent="3bo532ZrrMb0qC5lylQY-17">
          <mxGeometry y="108" width="190" height="50" as="geometry" />
        </mxCell>
        <mxCell id="3bo532ZrrMb0qC5lylQY-21" value="Corpus" style="swimlane;fontStyle=1;align=center;verticalAlign=top;childLayout=stackLayout;horizontal=1;startSize=26;horizontalStack=0;resizeParent=1;resizeParentMax=0;resizeLast=0;collapsible=1;marginBottom=0;whiteSpace=wrap;html=1;" vertex="1" parent="1">
          <mxGeometry x="290" y="50" width="390" height="420" as="geometry" />
        </mxCell>
        <mxCell id="3bo532ZrrMb0qC5lylQY-22" value="+ nom :String&lt;br&gt;+ authors : Dict{id : auteur}&lt;br&gt;+ id2doc : Dict{id : document}&lt;br&gt;+ ndoc : Integer&lt;br&gt;&amp;nbsp;+ naut : Integer&lt;br&gt;&amp;nbsp;- vocabulaire : set&lt;br&gt;&amp;nbsp;+ frequence_mot {mot : frequence}&lt;br&gt;&amp;nbsp;+ vocab : { mot : dictionnaire_id, nb_frequence, nbOccurencesTotales, nbDocumentContenantMot }&lt;br&gt;&amp;nbsp;+ mat_TF : sparse matrix&lt;br&gt;&amp;nbsp;+ mat_TFxIDF : matrix&lt;br&gt;" style="text;strokeColor=none;fillColor=none;align=left;verticalAlign=top;spacingLeft=4;spacingRight=4;overflow=hidden;rotatable=0;points=[[0,0.5],[1,0.5]];portConstraint=eastwest;whiteSpace=wrap;html=1;" vertex="1" parent="3bo532ZrrMb0qC5lylQY-21">
          <mxGeometry y="26" width="390" height="174" as="geometry" />
        </mxCell>
        <mxCell id="3bo532ZrrMb0qC5lylQY-23" value="" style="line;strokeWidth=1;fillColor=none;align=left;verticalAlign=middle;spacingTop=-1;spacingLeft=3;spacingRight=3;rotatable=0;labelPosition=right;points=[];portConstraint=eastwest;strokeColor=inherit;" vertex="1" parent="3bo532ZrrMb0qC5lylQY-21">
          <mxGeometry y="200" width="390" height="8" as="geometry" />
        </mxCell>
        <mxCell id="3bo532ZrrMb0qC5lylQY-24" value="+ __init__(nom : String) :Corpus&lt;br&gt;+ add (Document) : void&lt;br&gt;+ show (n_docs : Integer , tri : TRI) : String&lt;br&gt;+ __repr__ : String&lt;br&gt;+ search (mot_clef : String, chaine_unique : String) : list[]&lt;br&gt;+ concorder (mot_clef : String, chaine_unique : String, taille_contexte : Integer): Dataframe&lt;br&gt;+ nettoyer_texte(chaine_unique : String): String&lt;br&gt;+ definir_vocab() : vocab&lt;br&gt;+ get_frequence_mot() : frequence_mot&lt;br&gt;+ definir_matrice() : mat_TF&lt;br&gt;+ calculer_stats_vocab() : vocab&lt;br&gt;+ definir_mat_TFxIDF() : mat_TFxIDF" style="text;strokeColor=none;fillColor=none;align=left;verticalAlign=top;spacingLeft=4;spacingRight=4;overflow=hidden;rotatable=0;points=[[0,0.5],[1,0.5]];portConstraint=eastwest;whiteSpace=wrap;html=1;" vertex="1" parent="3bo532ZrrMb0qC5lylQY-21">
          <mxGeometry y="208" width="390" height="212" as="geometry" />
        </mxCell>
        <mxCell id="3bo532ZrrMb0qC5lylQY-32" value="&amp;lt;&amp;lt;enumeration&amp;gt;&amp;gt;&lt;br&gt;TRI" style="swimlane;fontStyle=0;childLayout=stackLayout;horizontal=1;startSize=26;fillColor=none;horizontalStack=0;resizeParent=1;resizeParentMax=0;resizeLast=0;collapsible=1;marginBottom=0;whiteSpace=wrap;html=1;" vertex="1" parent="1">
          <mxGeometry x="710" y="190" width="140" height="78" as="geometry" />
        </mxCell>
        <mxCell id="3bo532ZrrMb0qC5lylQY-33" value="ABC" style="text;strokeColor=none;fillColor=none;align=left;verticalAlign=top;spacingLeft=4;spacingRight=4;overflow=hidden;rotatable=0;points=[[0,0.5],[1,0.5]];portConstraint=eastwest;whiteSpace=wrap;html=1;" vertex="1" parent="3bo532ZrrMb0qC5lylQY-32">
          <mxGeometry y="26" width="140" height="26" as="geometry" />
        </mxCell>
        <mxCell id="3bo532ZrrMb0qC5lylQY-34" value="123" style="text;strokeColor=none;fillColor=none;align=left;verticalAlign=top;spacingLeft=4;spacingRight=4;overflow=hidden;rotatable=0;points=[[0,0.5],[1,0.5]];portConstraint=eastwest;whiteSpace=wrap;html=1;" vertex="1" parent="3bo532ZrrMb0qC5lylQY-32">
          <mxGeometry y="52" width="140" height="26" as="geometry" />
        </mxCell>
      </root>
    </mxGraphModel>
  </diagram>
</mxfile>
